<?xml version="1.0" encoding="UTF-8" standalone="no"?>
<!DOCTYPE svg PUBLIC "-//W3C//DTD SVG 1.1//EN"
 "http://www.w3.org/Graphics/SVG/1.1/DTD/svg11.dtd">
<!-- Generated by graphviz version 2.40.1 (0)
 -->
<!-- Title: %3 Pages: 1 -->
<svg width="1655pt" height="271pt"
 viewBox="0.00 0.00 1654.88 271.22" xmlns="http://www.w3.org/2000/svg" xmlns:xlink="http://www.w3.org/1999/xlink">
<g id="graph0" class="graph" transform="scale(1 1) rotate(0) translate(4 267.2203)">
<title>%3</title>
<!-- 140173777349712 -->
<g id="node1" class="node">
<title>140173777349712</title>
<ellipse fill="none" stroke="#000000" cx="823.4386" cy="-26.8701" rx="91.8478" ry="26.7407"/>
<text text-anchor="middle" x="823.4386" y="-30.6701" font-family="Times,serif" font-size="14.00" fill="#000000">make_sentence </text>
<text text-anchor="middle" x="823.4386" y="-15.6701" font-family="Times,serif" font-size="14.00" fill="#000000"> (—)</text>
</g>
<!-- 140173777696848 -->
<g id="node2" class="node">
<title>140173777696848</title>
<ellipse fill="none" stroke="#000000" cx="823.4386" cy="-131.6102" rx="164.0976" ry="26.7407"/>
<text text-anchor="middle" x="823.4386" y="-135.4102" font-family="Times,serif" font-size="14.00" fill="#000000">gather </text>
<text text-anchor="middle" x="823.4386" y="-120.4102" font-family="Times,serif" font-size="14.00" fill="#000000"> (—, —, —, —, —, —, —, —, —)</text>
</g>
<!-- 140173777696848&#45;&gt;140173777349712 -->
<g id="edge1" class="edge">
<title>140173777696848&#45;&gt;140173777349712</title>
<path fill="none" stroke="#000000" d="M823.4386,-104.637C823.4386,-92.2976 823.4386,-77.4761 823.4386,-64.0972"/>
<polygon fill="#000000" stroke="#000000" points="826.9387,-63.7518 823.4386,-53.7518 819.9387,-63.7519 826.9387,-63.7518"/>
<text text-anchor="middle" x="845.4386" y="-75.5401" font-family="Times,serif" font-size="14.00" fill="#000000">words</text>
</g>
<!-- 140173777369232 -->
<g id="node3" class="node">
<title>140173777369232</title>
<ellipse fill="none" stroke="#000000" cx="83.4386" cy="-236.3503" rx="83.3772" ry="26.7407"/>
<text text-anchor="middle" x="83.4386" y="-240.1503" font-family="Times,serif" font-size="14.00" fill="#000000">reverse_word </text>
<text text-anchor="middle" x="83.4386" y="-225.1503" font-family="Times,serif" font-size="14.00" fill="#000000"> (&#39;the&#39;)</text>
</g>
<!-- 140173777369232&#45;&gt;140173777696848 -->
<g id="edge2" class="edge">
<title>140173777369232&#45;&gt;140173777696848</title>
<path fill="none" stroke="#000000" d="M143.3808,-217.5576C154.3062,-214.5544 165.6582,-211.7077 176.4386,-209.4802 340.5733,-175.566 531.404,-154.8265 663.0712,-143.3706"/>
<polygon fill="#000000" stroke="#000000" points="663.5774,-146.84 673.2398,-142.4941 662.9762,-139.8659 663.5774,-146.84"/>
<text text-anchor="middle" x="357.9386" y="-180.2802" font-family="Times,serif" font-size="14.00" fill="#000000">a</text>
</g>
<!-- 140173777369680 -->
<g id="node4" class="node">
<title>140173777369680</title>
<ellipse fill="none" stroke="#000000" cx="268.4386" cy="-236.3503" rx="83.3772" ry="26.7407"/>
<text text-anchor="middle" x="268.4386" y="-240.1503" font-family="Times,serif" font-size="14.00" fill="#000000">reverse_word </text>
<text text-anchor="middle" x="268.4386" y="-225.1503" font-family="Times,serif" font-size="14.00" fill="#000000"> (&#39;quick&#39;)</text>
</g>
<!-- 140173777369680&#45;&gt;140173777696848 -->
<g id="edge3" class="edge">
<title>140173777369680&#45;&gt;140173777696848</title>
<path fill="none" stroke="#000000" d="M328.9602,-217.7823C339.7228,-214.7904 350.8697,-211.8894 361.4386,-209.4802 470.0931,-184.7121 594.775,-164.1512 687.2076,-150.3885"/>
<polygon fill="#000000" stroke="#000000" points="687.8016,-153.8388 697.1808,-148.9112 686.7759,-146.9143 687.8016,-153.8388"/>
<text text-anchor="middle" x="530.9386" y="-180.2802" font-family="Times,serif" font-size="14.00" fill="#000000">a</text>
</g>
<!-- 140173777370128 -->
<g id="node5" class="node">
<title>140173777370128</title>
<ellipse fill="none" stroke="#000000" cx="453.4386" cy="-236.3503" rx="83.3772" ry="26.7407"/>
<text text-anchor="middle" x="453.4386" y="-240.1503" font-family="Times,serif" font-size="14.00" fill="#000000">reverse_word </text>
<text text-anchor="middle" x="453.4386" y="-225.1503" font-family="Times,serif" font-size="14.00" fill="#000000"> (&#39;brown&#39;)</text>
</g>
<!-- 140173777370128&#45;&gt;140173777696848 -->
<g id="edge4" class="edge">
<title>140173777370128&#45;&gt;140173777696848</title>
<path fill="none" stroke="#000000" d="M515.4519,-218.3656C525.7959,-215.3851 536.4178,-212.3363 546.4386,-209.4802 607.7202,-192.0139 676.7059,-172.6198 730.5027,-157.5558"/>
<polygon fill="#000000" stroke="#000000" points="731.6794,-160.8611 740.3657,-154.7949 729.7923,-154.1202 731.6794,-160.8611"/>
<text text-anchor="middle" x="665.9386" y="-180.2802" font-family="Times,serif" font-size="14.00" fill="#000000">a</text>
</g>
<!-- 140173777370576 -->
<g id="node6" class="node">
<title>140173777370576</title>
<ellipse fill="none" stroke="#000000" cx="638.4386" cy="-236.3503" rx="83.3772" ry="26.7407"/>
<text text-anchor="middle" x="638.4386" y="-240.1503" font-family="Times,serif" font-size="14.00" fill="#000000">reverse_word </text>
<text text-anchor="middle" x="638.4386" y="-225.1503" font-family="Times,serif" font-size="14.00" fill="#000000"> (&#39;fox&#39;)</text>
</g>
<!-- 140173777370576&#45;&gt;140173777696848 -->
<g id="edge5" class="edge">
<title>140173777370576&#45;&gt;140173777696848</title>
<path fill="none" stroke="#000000" d="M679.9562,-212.8446C706.1992,-197.9868 740.404,-178.6213 768.8343,-162.5251"/>
<polygon fill="#000000" stroke="#000000" points="770.8669,-165.3964 777.8446,-157.4238 767.4181,-159.3049 770.8669,-165.3964"/>
<text text-anchor="middle" x="746.9386" y="-180.2802" font-family="Times,serif" font-size="14.00" fill="#000000">a</text>
</g>
<!-- 140173777371024 -->
<g id="node7" class="node">
<title>140173777371024</title>
<ellipse fill="none" stroke="#000000" cx="823.4386" cy="-236.3503" rx="83.3772" ry="26.7407"/>
<text text-anchor="middle" x="823.4386" y="-240.1503" font-family="Times,serif" font-size="14.00" fill="#000000">reverse_word </text>
<text text-anchor="middle" x="823.4386" y="-225.1503" font-family="Times,serif" font-size="14.00" fill="#000000"> (&#39;jumps&#39;)</text>
</g>
<!-- 140173777371024&#45;&gt;140173777696848 -->
<g id="edge6" class="edge">
<title>140173777371024&#45;&gt;140173777696848</title>
<path fill="none" stroke="#000000" d="M823.4386,-209.3771C823.4386,-197.0377 823.4386,-182.2162 823.4386,-168.8373"/>
<polygon fill="#000000" stroke="#000000" points="826.9387,-168.4919 823.4386,-158.4919 819.9387,-168.492 826.9387,-168.4919"/>
<text text-anchor="middle" x="827.9386" y="-180.2802" font-family="Times,serif" font-size="14.00" fill="#000000">a</text>
</g>
<!-- 140173777695120 -->
<g id="node8" class="node">
<title>140173777695120</title>
<ellipse fill="none" stroke="#000000" cx="1008.4386" cy="-236.3503" rx="83.3772" ry="26.7407"/>
<text text-anchor="middle" x="1008.4386" y="-240.1503" font-family="Times,serif" font-size="14.00" fill="#000000">reverse_word </text>
<text text-anchor="middle" x="1008.4386" y="-225.1503" font-family="Times,serif" font-size="14.00" fill="#000000"> (&#39;over&#39;)</text>
</g>
<!-- 140173777695120&#45;&gt;140173777696848 -->
<g id="edge7" class="edge">
<title>140173777695120&#45;&gt;140173777696848</title>
<path fill="none" stroke="#000000" d="M966.921,-212.8446C940.678,-197.9868 906.4732,-178.6213 878.0429,-162.5251"/>
<polygon fill="#000000" stroke="#000000" points="879.4591,-159.3049 869.0326,-157.4238 876.0103,-165.3964 879.4591,-159.3049"/>
<text text-anchor="middle" x="931.9386" y="-180.2802" font-family="Times,serif" font-size="14.00" fill="#000000">a</text>
</g>
<!-- 140173777695568 -->
<g id="node9" class="node">
<title>140173777695568</title>
<ellipse fill="none" stroke="#000000" cx="1193.4386" cy="-236.3503" rx="83.3772" ry="26.7407"/>
<text text-anchor="middle" x="1193.4386" y="-240.1503" font-family="Times,serif" font-size="14.00" fill="#000000">reverse_word </text>
<text text-anchor="middle" x="1193.4386" y="-225.1503" font-family="Times,serif" font-size="14.00" fill="#000000"> (&#39;the&#39;)</text>
</g>
<!-- 140173777695568&#45;&gt;140173777696848 -->
<g id="edge8" class="edge">
<title>140173777695568&#45;&gt;140173777696848</title>
<path fill="none" stroke="#000000" d="M1131.4253,-218.3656C1121.0813,-215.3851 1110.4594,-212.3363 1100.4386,-209.4802 1039.157,-192.0139 970.1713,-172.6198 916.3745,-157.5558"/>
<polygon fill="#000000" stroke="#000000" points="917.0849,-154.1202 906.5115,-154.7949 915.1978,-160.8611 917.0849,-154.1202"/>
<text text-anchor="middle" x="1036.9386" y="-180.2802" font-family="Times,serif" font-size="14.00" fill="#000000">a</text>
</g>
<!-- 140173777696016 -->
<g id="node10" class="node">
<title>140173777696016</title>
<ellipse fill="none" stroke="#000000" cx="1378.4386" cy="-236.3503" rx="83.3772" ry="26.7407"/>
<text text-anchor="middle" x="1378.4386" y="-240.1503" font-family="Times,serif" font-size="14.00" fill="#000000">reverse_word </text>
<text text-anchor="middle" x="1378.4386" y="-225.1503" font-family="Times,serif" font-size="14.00" fill="#000000"> (&#39;lazy&#39;)</text>
</g>
<!-- 140173777696016&#45;&gt;140173777696848 -->
<g id="edge9" class="edge">
<title>140173777696016&#45;&gt;140173777696848</title>
<path fill="none" stroke="#000000" d="M1317.917,-217.7823C1307.1544,-214.7904 1296.0075,-211.8894 1285.4386,-209.4802 1176.7841,-184.7121 1052.1022,-164.1512 959.6696,-150.3885"/>
<polygon fill="#000000" stroke="#000000" points="960.1013,-146.9143 949.6964,-148.9112 959.0756,-153.8388 960.1013,-146.9143"/>
<text text-anchor="middle" x="1202.9386" y="-180.2802" font-family="Times,serif" font-size="14.00" fill="#000000">a</text>
</g>
<!-- 140173777696464 -->
<g id="node11" class="node">
<title>140173777696464</title>
<ellipse fill="none" stroke="#000000" cx="1563.4386" cy="-236.3503" rx="83.3772" ry="26.7407"/>
<text text-anchor="middle" x="1563.4386" y="-240.1503" font-family="Times,serif" font-size="14.00" fill="#000000">reverse_word </text>
<text text-anchor="middle" x="1563.4386" y="-225.1503" font-family="Times,serif" font-size="14.00" fill="#000000"> (&#39;dog&#39;)</text>
</g>
<!-- 140173777696464&#45;&gt;140173777696848 -->
<g id="edge10" class="edge">
<title>140173777696464&#45;&gt;140173777696848</title>
<path fill="none" stroke="#000000" d="M1503.4955,-217.5619C1492.5702,-214.5582 1481.2184,-211.7103 1470.4386,-209.4802 1306.312,-175.5264 1115.4801,-154.7931 983.8104,-143.3495"/>
<polygon fill="#000000" stroke="#000000" points="983.9049,-139.8448 973.6415,-142.474 983.3044,-146.819 983.9049,-139.8448"/>
<text text-anchor="middle" x="1369.9386" y="-180.2802" font-family="Times,serif" font-size="14.00" fill="#000000">a</text>
</g>
</g>
</svg>
